<svg width="106" height="18" viewBox="0 0 106 18" fill="none" xmlns="http://www.w3.org/2000/svg">
<path d="M13.852 16.8746C13.7336 16.875 13.6181 16.8381 13.5219 16.7691L9.00048 13.4911L4.47903 16.7691C4.38243 16.8392 4.26606 16.8767 4.14673 16.8762C4.0274 16.8758 3.91129 16.8374 3.81521 16.7667C3.71912 16.6959 3.64803 16.5964 3.61221 16.4826C3.57639 16.3688 3.5777 16.2465 3.61594 16.1335L5.37938 10.9103L0.809069 7.77612C0.710073 7.70831 0.635356 7.61062 0.595836 7.49732C0.556316 7.38402 0.554063 7.26105 0.589407 7.14638C0.624751 7.0317 0.695839 6.93134 0.792285 6.85995C0.888732 6.78856 1.00548 6.74988 1.12548 6.74956H6.76384L8.4654 1.51304C8.50205 1.39998 8.57358 1.30144 8.6697 1.23156C8.76583 1.16167 8.88163 1.12402 9.00048 1.12402C9.11932 1.12402 9.23512 1.16167 9.33125 1.23156C9.42738 1.30144 9.4989 1.39998 9.53555 1.51304L11.2371 6.75132H16.8755C16.9956 6.75126 17.1126 6.78967 17.2094 6.86093C17.3061 6.93218 17.3775 7.03254 17.413 7.1473C17.4486 7.26206 17.4465 7.38519 17.407 7.49866C17.3675 7.61213 17.2928 7.70998 17.1936 7.77788L12.6216 10.9103L14.384 16.1321C14.4125 16.2166 14.4205 16.3067 14.4074 16.395C14.3942 16.4832 14.3603 16.5671 14.3083 16.6396C14.2563 16.7122 14.1879 16.7713 14.1085 16.8122C14.0292 16.853 13.9413 16.8744 13.852 16.8746Z" fill="url(#paint0_linear_148_6973)"/>
<path d="M35.852 16.8746C35.7336 16.875 35.6181 16.8381 35.5219 16.7691L31.0005 13.4911L26.479 16.7691C26.3824 16.8392 26.2661 16.8767 26.1467 16.8762C26.0274 16.8758 25.9113 16.8374 25.8152 16.7667C25.7191 16.6959 25.648 16.5964 25.6122 16.4826C25.5764 16.3688 25.5777 16.2465 25.6159 16.1335L27.3794 10.9103L22.8091 7.77612C22.7101 7.70831 22.6354 7.61062 22.5958 7.49732C22.5563 7.38402 22.5541 7.26105 22.5894 7.14638C22.6248 7.0317 22.6958 6.93134 22.7923 6.85995C22.8887 6.78856 23.0055 6.74988 23.1255 6.74956H28.7638L30.4654 1.51304C30.5021 1.39998 30.5736 1.30144 30.6697 1.23156C30.7658 1.16167 30.8816 1.12402 31.0005 1.12402C31.1193 1.12402 31.2351 1.16167 31.3312 1.23156C31.4274 1.30144 31.4989 1.39998 31.5356 1.51304L33.2371 6.75132H38.8755C38.9956 6.75126 39.1126 6.78967 39.2094 6.86093C39.3061 6.93218 39.3775 7.03254 39.413 7.1473C39.4486 7.26206 39.4465 7.38519 39.407 7.49866C39.3675 7.61213 39.2928 7.70998 39.1936 7.77788L34.6216 10.9103L36.384 16.1321C36.4125 16.2166 36.4205 16.3067 36.4074 16.395C36.3942 16.4832 36.3603 16.5671 36.3083 16.6396C36.2563 16.7122 36.1879 16.7713 36.1085 16.8122C36.0292 16.853 35.9413 16.8744 35.852 16.8746Z" fill="url(#paint1_linear_148_6973)"/>
<path d="M57.852 16.8746C57.7336 16.875 57.6181 16.8381 57.5219 16.7691L53.0005 13.4911L48.479 16.7691C48.3824 16.8392 48.2661 16.8767 48.1467 16.8762C48.0274 16.8758 47.9113 16.8374 47.8152 16.7667C47.7191 16.6959 47.648 16.5964 47.6122 16.4826C47.5764 16.3688 47.5777 16.2465 47.6159 16.1335L49.3794 10.9103L44.8091 7.77612C44.7101 7.70831 44.6354 7.61062 44.5958 7.49732C44.5563 7.38402 44.5541 7.26105 44.5894 7.14638C44.6248 7.0317 44.6958 6.93134 44.7923 6.85995C44.8887 6.78856 45.0055 6.74988 45.1255 6.74956H50.7638L52.4654 1.51304C52.5021 1.39998 52.5736 1.30144 52.6697 1.23156C52.7658 1.16167 52.8816 1.12402 53.0005 1.12402C53.1193 1.12402 53.2351 1.16167 53.3312 1.23156C53.4274 1.30144 53.4989 1.39998 53.5356 1.51304L55.2371 6.75132H60.8755C60.9956 6.75126 61.1126 6.78967 61.2094 6.86093C61.3061 6.93218 61.3775 7.03254 61.413 7.1473C61.4486 7.26206 61.4465 7.38519 61.407 7.49866C61.3675 7.61213 61.2928 7.70998 61.1936 7.77788L56.6216 10.9103L58.384 16.1321C58.4125 16.2166 58.4205 16.3067 58.4074 16.395C58.3942 16.4832 58.3603 16.5671 58.3083 16.6396C58.2563 16.7122 58.1879 16.7713 58.1085 16.8122C58.0292 16.853 57.9413 16.8744 57.852 16.8746Z" fill="url(#paint2_linear_148_6973)"/>
<path d="M79.852 16.8746C79.7336 16.875 79.6181 16.8381 79.5219 16.7691L75.0005 13.4911L70.479 16.7691C70.3824 16.8392 70.2661 16.8767 70.1467 16.8762C70.0274 16.8758 69.9113 16.8374 69.8152 16.7667C69.7191 16.6959 69.648 16.5964 69.6122 16.4826C69.5764 16.3688 69.5777 16.2465 69.6159 16.1335L71.3794 10.9103L66.8091 7.77612C66.7101 7.70831 66.6354 7.61062 66.5958 7.49732C66.5563 7.38402 66.5541 7.26105 66.5894 7.14638C66.6248 7.0317 66.6958 6.93134 66.7923 6.85995C66.8887 6.78856 67.0055 6.74988 67.1255 6.74956H72.7638L74.4654 1.51304C74.5021 1.39998 74.5736 1.30144 74.6697 1.23156C74.7658 1.16167 74.8816 1.12402 75.0005 1.12402C75.1193 1.12402 75.2351 1.16167 75.3312 1.23156C75.4274 1.30144 75.4989 1.39998 75.5356 1.51304L77.2371 6.75132H82.8755C82.9956 6.75126 83.1126 6.78967 83.2094 6.86093C83.3061 6.93218 83.3775 7.03254 83.413 7.1473C83.4486 7.26206 83.4465 7.38519 83.407 7.49866C83.3675 7.61213 83.2928 7.70998 83.1936 7.77788L78.6216 10.9103L80.384 16.1321C80.4125 16.2166 80.4205 16.3067 80.4074 16.395C80.3942 16.4832 80.3603 16.5671 80.3083 16.6396C80.2563 16.7122 80.1879 16.7713 80.1085 16.8122C80.0292 16.853 79.9413 16.8744 79.852 16.8746Z" fill="url(#paint3_linear_148_6973)"/>
<path d="M101.852 16.8746C101.734 16.875 101.618 16.8381 101.522 16.7691L97.0005 13.4911L92.479 16.7691C92.3824 16.8392 92.2661 16.8767 92.1467 16.8762C92.0274 16.8758 91.9113 16.8374 91.8152 16.7667C91.7191 16.6959 91.648 16.5964 91.6122 16.4826C91.5764 16.3688 91.5777 16.2465 91.6159 16.1335L93.3794 10.9103L88.8091 7.77612C88.7101 7.70831 88.6354 7.61062 88.5958 7.49732C88.5563 7.38402 88.5541 7.26105 88.5894 7.14638C88.6248 7.0317 88.6958 6.93134 88.7923 6.85995C88.8887 6.78856 89.0055 6.74988 89.1255 6.74956H94.7638L96.4654 1.51304C96.5021 1.39998 96.5736 1.30144 96.6697 1.23156C96.7658 1.16167 96.8816 1.12402 97.0005 1.12402C97.1193 1.12402 97.2351 1.16167 97.3312 1.23156C97.4274 1.30144 97.4989 1.39998 97.5356 1.51304L99.2371 6.75132H104.875C104.996 6.75126 105.113 6.78967 105.209 6.86093C105.306 6.93218 105.377 7.03254 105.413 7.1473C105.449 7.26206 105.446 7.38519 105.407 7.49866C105.368 7.61213 105.293 7.70998 105.194 7.77788L100.622 10.9103L102.384 16.1321C102.413 16.2166 102.421 16.3067 102.407 16.395C102.394 16.4832 102.36 16.5671 102.308 16.6396C102.256 16.7122 102.188 16.7713 102.109 16.8122C102.029 16.853 101.941 16.8744 101.852 16.8746Z" fill="url(#paint4_linear_148_6973)"/>
<defs>
<linearGradient id="paint0_linear_148_6973" x1="2.62549" y1="2.24957" x2="13.8755" y2="17.2496" gradientUnits="userSpaceOnUse">
<stop stop-color="#F84119"/>
<stop offset="1" stop-color="#F89F19" stop-opacity="0.68"/>
</linearGradient>
<linearGradient id="paint1_linear_148_6973" x1="24.6255" y1="2.24957" x2="35.8755" y2="17.2496" gradientUnits="userSpaceOnUse">
<stop stop-color="#F84119"/>
<stop offset="1" stop-color="#F89F19" stop-opacity="0.68"/>
</linearGradient>
<linearGradient id="paint2_linear_148_6973" x1="46.6255" y1="2.24957" x2="57.8755" y2="17.2496" gradientUnits="userSpaceOnUse">
<stop stop-color="#F84119"/>
<stop offset="1" stop-color="#F89F19" stop-opacity="0.68"/>
</linearGradient>
<linearGradient id="paint3_linear_148_6973" x1="68.6255" y1="2.24957" x2="79.8755" y2="17.2496" gradientUnits="userSpaceOnUse">
<stop stop-color="#F84119"/>
<stop offset="1" stop-color="#F89F19" stop-opacity="0.68"/>
</linearGradient>
<linearGradient id="paint4_linear_148_6973" x1="90.6255" y1="2.24957" x2="101.875" y2="17.2496" gradientUnits="userSpaceOnUse">
<stop stop-color="#F84119"/>
<stop offset="1" stop-color="#F89F19" stop-opacity="0.68"/>
</linearGradient>
</defs>
</svg>
