<svg width="106" height="18" viewBox="0 0 106 18" fill="none" xmlns="http://www.w3.org/2000/svg">
<path d="M13.852 16.8746C13.7336 16.875 13.6181 16.8381 13.5219 16.7691L9.00048 13.4911L4.47903 16.7691C4.38243 16.8392 4.26606 16.8767 4.14673 16.8762C4.0274 16.8758 3.91129 16.8374 3.81521 16.7667C3.71912 16.6959 3.64803 16.5964 3.61221 16.4826C3.57639 16.3688 3.5777 16.2465 3.61594 16.1335L5.37938 10.9103L0.809069 7.77612C0.710073 7.70831 0.635356 7.61062 0.595836 7.49732C0.556316 7.38402 0.554063 7.26105 0.589407 7.14638C0.624751 7.0317 0.695839 6.93134 0.792285 6.85995C0.888732 6.78856 1.00548 6.74988 1.12548 6.74956H6.76384L8.4654 1.51304C8.50205 1.39998 8.57358 1.30144 8.6697 1.23156C8.76583 1.16167 8.88163 1.12402 9.00048 1.12402C9.11932 1.12402 9.23512 1.16167 9.33125 1.23156C9.42738 1.30144 9.4989 1.39998 9.53555 1.51304L11.2371 6.75132H16.8755C16.9956 6.75126 17.1126 6.78967 17.2094 6.86093C17.3061 6.93218 17.3775 7.03254 17.413 7.1473C17.4486 7.26206 17.4465 7.38519 17.407 7.49866C17.3675 7.61213 17.2928 7.70998 17.1936 7.77788L12.6216 10.9103L14.384 16.1321C14.4125 16.2166 14.4205 16.3067 14.4074 16.395C14.3942 16.4832 14.3603 16.5671 14.3083 16.6396C14.2563 16.7122 14.1879 16.7713 14.1085 16.8122C14.0292 16.853 13.9413 16.8744 13.852 16.8746Z" fill="url(#paint0_linear_14245_7)"/>
<path d="M35.852 16.8746C35.7336 16.875 35.6181 16.8381 35.5219 16.7691L31.0005 13.4911L26.479 16.7691C26.3824 16.8392 26.2661 16.8767 26.1467 16.8762C26.0274 16.8758 25.9113 16.8374 25.8152 16.7667C25.7191 16.6959 25.648 16.5964 25.6122 16.4826C25.5764 16.3688 25.5777 16.2465 25.6159 16.1335L27.3794 10.9103L22.8091 7.77612C22.7101 7.70831 22.6354 7.61062 22.5958 7.49732C22.5563 7.38402 22.5541 7.26105 22.5894 7.14638C22.6248 7.0317 22.6958 6.93134 22.7923 6.85995C22.8887 6.78856 23.0055 6.74988 23.1255 6.74956H28.7638L30.4654 1.51304C30.5021 1.39998 30.5736 1.30144 30.6697 1.23156C30.7658 1.16167 30.8816 1.12402 31.0005 1.12402C31.1193 1.12402 31.2351 1.16167 31.3312 1.23156C31.4274 1.30144 31.4989 1.39998 31.5356 1.51304L33.2371 6.75132H38.8755C38.9956 6.75126 39.1126 6.78967 39.2094 6.86093C39.3061 6.93218 39.3775 7.03254 39.413 7.1473C39.4486 7.26206 39.4465 7.38519 39.407 7.49866C39.3675 7.61213 39.2928 7.70998 39.1936 7.77788L34.6216 10.9103L36.384 16.1321C36.4125 16.2166 36.4205 16.3067 36.4074 16.395C36.3942 16.4832 36.3603 16.5671 36.3083 16.6396C36.2563 16.7122 36.1879 16.7713 36.1085 16.8122C36.0292 16.853 35.9413 16.8744 35.852 16.8746Z" fill="url(#paint1_linear_14245_7)"/>
<path d="M60.875 7.3125H54.8281L53 1.6875L51.1719 7.3125H45.125L50.0469 10.6875L48.1484 16.3125L53 12.7969L57.8516 16.3125L55.9531 10.6875L60.875 7.3125Z" stroke="url(#paint2_linear_14245_7)" stroke-linejoin="round"/>
<path d="M82.875 7.3125H76.8281L75 1.6875L73.1719 7.3125H67.125L72.0469 10.6875L70.1484 16.3125L75 12.7969L79.8516 16.3125L77.9531 10.6875L82.875 7.3125Z" stroke="url(#paint3_linear_14245_7)" stroke-linejoin="round"/>
<path d="M104.875 7.3125H98.8281L97 1.6875L95.1719 7.3125H89.125L94.0469 10.6875L92.1484 16.3125L97 12.7969L101.852 16.3125L99.9531 10.6875L104.875 7.3125Z" stroke="url(#paint4_linear_14245_7)" stroke-linejoin="round"/>
<defs>
<linearGradient id="paint0_linear_14245_7" x1="2.62549" y1="2.24957" x2="13.8755" y2="17.2496" gradientUnits="userSpaceOnUse">
<stop stop-color="#F84119"/>
<stop offset="1" stop-color="#F89F19" stop-opacity="0.68"/>
</linearGradient>
<linearGradient id="paint1_linear_14245_7" x1="24.6255" y1="2.24957" x2="35.8755" y2="17.2496" gradientUnits="userSpaceOnUse">
<stop stop-color="#F84119"/>
<stop offset="1" stop-color="#F89F19" stop-opacity="0.68"/>
</linearGradient>
<linearGradient id="paint2_linear_14245_7" x1="47.0488" y1="2.73251" x2="57.478" y2="16.7124" gradientUnits="userSpaceOnUse">
<stop stop-color="#F84119"/>
<stop offset="1" stop-color="#F89F19" stop-opacity="0.68"/>
</linearGradient>
<linearGradient id="paint3_linear_14245_7" x1="69.0488" y1="2.73251" x2="79.478" y2="16.7124" gradientUnits="userSpaceOnUse">
<stop stop-color="#F84119"/>
<stop offset="1" stop-color="#F89F19" stop-opacity="0.68"/>
</linearGradient>
<linearGradient id="paint4_linear_14245_7" x1="91.0488" y1="2.73251" x2="101.478" y2="16.7124" gradientUnits="userSpaceOnUse">
<stop stop-color="#F84119"/>
<stop offset="1" stop-color="#F89F19" stop-opacity="0.68"/>
</linearGradient>
</defs>
</svg>
